<svg width="1497" height="1077" viewBox="0 0 1497 1077" fill="none" xmlns="http://www.w3.org/2000/svg">
<g opacity="0.17">
<path d="M1164.46 32.6435C1161.06 35.0666 1154.7 44.6434 1151.93 61.8418C1149.94 74.1276 1152.57 85.1877 1156.08 101.059C1159.41 116.167 1165.99 126.366 1170.15 129.469C1178.83 135.955 1189.7 136.29 1200.43 138.895C1210.4 141.313 1219.96 143.88 1230.13 145.765C1242.01 147.964 1251.65 158.895 1259.75 166.121C1268.44 173.868 1274.04 182.146 1281.63 205.103C1286.91 221.084 1275.14 233.187 1265.23 243.173C1255.47 253.009 1245.73 257.181 1234.08 263.161C1222.42 269.142 1209.71 271.262 1198.71 268.754C1184.38 263.791 1171.33 251.284 1166.23 242.99C1165.08 240.635 1164.12 237.946 1163.13 235.175" stroke="#7AD0F5" stroke-width="36" stroke-linecap="round"/>
<path d="M1351.28 537.874C1347.84 546.509 1338.65 555.697 1328.82 560.646C1319.24 565.468 1306.36 569.574 1294.5 573.624C1283.81 577.279 1252.3 575.942 1233.36 572.213C1212.44 568.094 1195.58 538.497 1191.52 527.82C1187.11 516.213 1180.56 504.478 1180.26 451.563C1180.15 432.661 1189.18 421.42 1195.52 411.306C1201.97 401.022 1212.23 394.876 1226.32 389.65C1258.03 377.892 1271.61 397.679 1282.03 404.894C1292.28 411.996 1299.33 421.316 1306.84 441.449C1309.5 448.563 1308.02 458.657 1306.02 464.229C1304.02 469.801 1300.02 470.943 1294.83 471.531C1283.34 472.12 1274.59 470.407 1269.99 466.669C1267.67 464.644 1265.38 462.36 1261.3 460.007" stroke="#A3EDE7" stroke-width="50" stroke-linecap="round"/>
<path d="M901.399 310.582C909.356 310.348 919.904 305.192 927.423 298.081C934.75 291.152 942.77 281.052 950.358 271.848C957.208 263.54 968.043 235.121 972.301 217.079C977.004 197.148 960.526 172.491 953.82 165.395C946.528 157.679 939.944 148.023 899.244 130.446C884.706 124.167 872.634 128.509 862.444 130.834C852.083 133.198 843.479 140.299 834.139 151.108C813.125 175.429 823.272 193.964 824.914 205.577C826.53 217.005 831.062 226.318 843.762 239.573C848.25 244.257 856.592 246.247 861.643 246.295C866.693 246.342 869.08 243.165 871.492 238.739C876.27 228.734 878.247 220.397 877.098 215.086C876.41 212.364 875.508 209.588 875.231 205.191" stroke="#7AD0F5" stroke-width="38" stroke-linecap="round"/>
<path d="M1216.4 734.68C1219.47 736.677 1224.16 747.253 1224.39 759.03C1224.62 770.953 1213.82 780.423 1206.2 786.858C1202.52 789.971 1196.97 792.02 1190.77 793.447C1179.69 796 1168.54 788.615 1157.25 784.718C1146.72 781.082 1137.98 773.128 1128.23 771.141C1118.66 769.19 1103.56 773.434 1093.51 780.95C1084.82 787.438 1086.18 800.317 1084.94 810.447C1083.44 822.661 1079.62 837.677 1074.63 846.602C1069.66 855.522 1057.27 865.638 1042.28 874.487C1036.35 877.968 1033.81 879.399 1029.56 881.411" stroke="#E4FDFD" stroke-width="30" stroke-linecap="round"/>
<path d="M1210.26 627.4C1214.52 629.892 1221.44 636.882 1226.14 648.049C1227.31 650.842 1225.91 653.837 1224.89 656.52C1217.8 675.217 1184.05 678.949 1179.25 676.686C1167.09 670.941 1158.25 660.82 1151.58 653.684C1143.38 644.925 1133.24 635.993 1125.62 621.099C1112.78 596.009 1093.71 558.893 1085 554.242C1070.83 546.681 1105.12 616.873 1100.77 628.319C1096.94 638.362 1091.39 648.302 1078.74 660.928C1069.01 670.635 1045.93 681.941 1029.73 683.528C1016.1 682.034 1004.41 678.447 996.478 669.996C994.564 666.435 992.232 661.223 989.83 655.852" stroke="#7AD0F5" stroke-width="32" stroke-linecap="round"/>
<path d="M967.102 552.008C969.076 543.524 976.655 525.654 982.25 516.368C990.07 503.39 1008.53 492.544 1053.75 482.778C1072.14 478.805 1088.78 480.004 1102.95 474.703C1130.65 464.339 1100.39 420.118 1096.8 410.238C1093.55 401.277 1088.56 392.636 1084.63 377.969M1084.63 377.969C1083.64 374.603 1115.36 361.161 1114.33 359.187C1113.31 357.212 1087.47 379.609 1084.63 377.969Z" stroke="white" stroke-width="30" stroke-linecap="round"/>
<path d="M746.161 598.718C741.994 601.357 731.805 611.348 722.886 625.558C714.564 638.817 717.729 653.301 723.272 669.808C728.022 683.956 735.616 693.373 740.477 697.102C749.721 704.192 766.843 705.827 779.396 706.248C793.533 706.722 813.006 707.963 825.398 708.75C836.977 709.486 850.052 713.834 861.678 715.93C871.973 717.787 877.971 723.462 882.214 725.885C886.858 728.537 886.415 736.662 885.563 744.101C884.024 757.53 873.429 767.874 867.937 778.525C862.445 789.174 863.305 800.897 863.761 812.526C864.504 831.48 884.132 854.245 894.244 859.633C896.924 860.917 899.563 862.182 902.119 863.208C904.675 864.235 907.067 864.985 908.031 862.639" stroke="white" stroke-width="50" stroke-linecap="round"/>
<path d="M759.914 94.516C755.869 91.6949 742.712 86.1662 726.158 83.4416C710.711 80.8992 698.581 89.4234 685.506 100.922C674.298 110.778 668.554 121.424 666.997 127.35C664.037 138.617 669.156 155.038 673.626 166.776C678.659 179.995 685.052 198.431 689.121 210.161C692.924 221.123 693.975 234.862 696.542 246.393C698.814 256.604 695.902 264.332 695.31 269.182C694.662 274.49 686.998 277.226 679.81 279.319C666.831 283.097 653.193 277.331 641.247 276.389C629.302 275.446 618.825 280.776 608.279 285.697C591.09 293.717 577.695 320.626 576.64 332.036C576.493 335.004 576.348 337.927 576.391 340.681C576.433 343.435 576.667 345.931 579.203 345.912" stroke="white" stroke-width="50" stroke-linecap="round"/>
<path d="M1342.26 818.782C1333.88 818.782 1315.68 817.098 1291.45 814.112C1250.01 809.006 1218.89 814.52 1213.71 816.428C1208.23 818.444 1202.66 822.163 1196.83 825.985C1184.07 834.344 1192.86 854.051 1198.39 860.655C1203.92 867.276 1213.63 872.35 1223.37 877.46C1233.78 882.571 1242.86 888.504 1250.34 894.259C1251.97 895.752 1253.26 897.436 1256.53 903" stroke="#7AD0F5" stroke-width="36" stroke-linecap="round"/>
<path d="M890.405 617.306C885.725 611.723 873.017 601.725 854.971 589.349C824.117 568.189 815.056 540.477 815.04 534.61C815.023 528.407 817.526 519.992 820.034 511.268C825.519 492.188 860.177 473.122 873.229 468.45C886.315 463.765 899.395 463.816 912.55 463.844C926.075 464.313 944.961 470.906 952.966 460.564C983.781 420.757 962.567 390.876 972.792 386.02" stroke="#A3EDE7" stroke-width="40" stroke-linecap="round"/>
<path d="M541.277 831.738C537.369 835.5 530.601 845.03 525.077 858.965C523.695 862.45 524.431 865.646 524.893 868.558C528.107 888.849 555.675 886.33 559.994 882.726C570.954 873.577 579.769 860.018 586.359 850.368C594.45 838.521 604.181 826.079 612.672 807.219C626.976 775.449 614.224 797.913 622.151 790.736C635.038 779.07 630.349 798.144 632.329 810.562C634.066 821.459 637.255 831.885 645.974 843.99C652.677 853.296 670.266 861.75 683.528 860.303C695.097 855.797 708.075 851.636 713.171 837.819C730.535 790.736 721.387 757.11 724.161 750.379" stroke="#A3EDE7" stroke-width="30" stroke-linecap="round"/>
<path d="M1068.35 190.39C1071.62 193.186 1078.98 203.242 1084.62 211.352C1090.11 219.25 1093.38 229.115 1096.58 240.497C1099.58 251.191 1099.04 260.586 1096.42 265.317C1093.38 270.817 1088.25 272.786 1074.81 276.051C1017.14 287.249 1009.67 291.987 1003.87 299.851C1003.13 302.264 1003.18 305.075 1004.11 312.934" stroke="#E4FDFD" stroke-width="40" stroke-linecap="round"/>
<path d="M812.61 298.83C807.43 296.996 796.351 294.86 785.774 294.12C775.824 293.424 749.889 303.796 735.986 314.922C732.026 318.091 732.079 324.786 731.011 330.326C730.043 335.345 733.286 342.918 737.629 350.866C743.348 361.33 757.422 360.591 764.041 367.669C776.332 380.813 779.191 406.796 777.079 412.103C769.959 429.993 733.328 430.996 723.497 428.05C713.534 425.064 702.517 421.087 693.269 414.687C688.806 412.24 685.026 409.191 682.143 404.224C680.669 401.258 679.172 397.384 677.63 393.393" stroke="#A3EDE7" stroke-width="20" stroke-linecap="round"/>
<path d="M659.743 525.681C649.047 525.681 628.608 523.308 624.419 518.527C620.699 514.279 620.194 505.368 620.788 495.193C621.523 482.581 633.354 474.196 641.731 469.666C646.319 467.184 653.703 466.358 662.08 467.248C674.336 468.55 679.482 483.688 684.893 493.287C690.163 502.637 693.288 513.637 697.18 523.848C702.344 537.397 696.919 557.392 691.823 566.695C686.926 575.633 676.57 581.373 666.377 586.191C654.932 591.601 634.72 588.6 618.442 586.811C605.427 585.381 593.877 577.239 577.113 561.401C566.357 551.239 560.907 538.912 556.988 529.313C552.982 519.499 548.899 510.149 546.499 500.55C542.706 485.38 548.252 463.41 554.256 454.107C563.244 447.195 572.808 442.413 582.407 437.613C584.816 436.409 587.189 435.222 591.432 434" stroke="#7AD0F5" stroke-width="28" stroke-linecap="round"/>
<path d="M585.956 638.122C588.367 640.474 593.202 648.811 598.095 657.758C602.738 666.247 600.736 685.206 594.615 701.212C586.122 723.423 576.006 732.839 568.885 742.202C565.682 746.415 561.151 749.18 556.39 751.611C551.628 754.042 537.923 755.381 519.649 754.348C503.772 753.452 495.782 740.204 487.905 732.46C480.645 725.321 472.225 718.219 462.849 709.606C455.545 702.897 445.129 702.844 432.546 702.932C421.271 703.011 415.256 716.22 408.134 724.388C401.824 731.624 403.616 759.895 409.135 778.006C412.723 789.777 427.239 794.032 439.254 799.045C449.493 802.258 456.708 805.199 465.65 806.022C472.214 806.272 482.892 806.182 493.893 806.089" stroke="#E4FDFD" stroke-width="38" stroke-linecap="round"/>
<path d="M459.634 112C458.448 112 454.277 112 447.698 113.483C434.657 116.423 433.281 131.127 428.193 143.99C418.584 168.284 435.042 179.664 441.927 187.475C449.467 196.029 460.785 200.05 470.385 205.461C479.515 210.607 489.548 212.058 505.116 212.076C516.519 212.09 524.315 203.717 533.006 197.713C542.046 191.468 541.716 179.161 545.311 167.189C545.923 155.288 544.143 146.174 540.557 142.291C538.75 140.187 536.97 137.815 533.339 131.774" stroke="#7AD0F5" stroke-width="50" stroke-linecap="round"/>
<path d="M108.872 306.761C104.701 304.388 97.5108 294.824 94.7963 284.038C91.1152 269.412 103.443 260.669 110.939 253.748C118.719 246.565 133.392 251.033 147.468 257.891C159.521 263.764 169.346 271.383 179.844 281.252C190.486 291.256 193.938 316.828 196.652 339.299C200.037 367.32 196.365 388.825 195.169 394.802C191.761 411.842 168.267 427.169 155.657 433.776C144.698 439.517 109.16 437.991 87.336 436.499C77.3929 435.819 66.9863 427.816 55.5801 418.855C42.9185 408.907 33.9811 388.915 25.6129 367.666C23.195 358.965 21.9906 352.925 21.0917 342.804C20.7861 335.056 20.7861 322.005 20.7861 308.559" stroke="#7AD0F5" stroke-width="38" stroke-linecap="round"/>
<path d="M87.3005 373.275C90.2846 375.648 97.4393 382.839 105.547 389.13C109.675 392.334 118.993 393.049 128.881 391.863C138.345 390.727 137.024 373.922 136.745 358.651C136.682 355.2 134.076 353.536 131.973 353.213C121.48 351.599 107.165 360.691 95.1653 361.284C88.4228 361.618 107.65 369.068 112.135 369.976C114.223 370.399 116.027 367.918 115.758 367.298C112.746 360.371 93.9878 369.68 81.9434 365.806C79.2414 364.937 77.1616 362.525 77.1256 361.905C76.6895 354.382 93.844 370.255 103.444 376.25C107.779 378.958 113.043 379.261 117.528 379.27C122.082 379.279 123.254 372.106 124.44 367.612C124.934 365.742 128 366.084 129.815 367.567C133.972 370.963 134.04 377.445 133.15 381.931C132.232 386.56 119.155 387.656 102.994 386.766C92.4387 386.185 87.3184 380.484 83.7321 376.897C76.7719 369.937 74.1414 359.541 72.9101 351.721C71.3214 341.632 92.0463 361.266 103.138 364.278C108.181 365.647 116.009 366.084 124.989 364.898C131.417 364.048 132.242 354.148 133.429 347.254C133.845 344.835 136.988 345.699 138.804 347.191C142.585 350.298 143.028 362.399 141.842 376.475C140.655 381.652 138.282 382.839 133.797 383.45C129.312 384.061 122.786 384.061 116.063 384.061" stroke="#A3EDE7" stroke-width="20" stroke-linecap="round"/>
<path d="M20.7861 446.979C22.5658 451.743 28.5521 462.511 33.9451 472.111C39.9752 482.844 53.6835 488.865 63.8943 496.991C72.402 503.761 83.0575 505.691 92.9537 508.388C120.448 515.88 165.75 509.323 175.35 506.015C185.371 502.562 193.327 494.366 200.23 484.767C206.747 475.703 213.101 464.417 218.809 453.909C224.767 442.941 228.094 433.245 231.105 423.646C232.912 414.046 234.098 404.482 236.201 389.544C236.507 381.796 236.507 368.745 232.912 357.096" stroke="white" stroke-width="20" stroke-linecap="round"/>
<path d="M11.7977 450.575H10" stroke="white" stroke-width="20" stroke-linecap="round"/>
<path d="M200.554 486.528C196.976 496.092 189.804 505.656 181.112 515.255C172.682 524.565 161.077 536.791 149.958 545.528C139.73 553.565 127.496 556.026 117.897 559.918C107.27 564.227 92.7653 570.983 80.7478 578.183C71.5777 583.676 63.9666 590.757 54.9782 598.254C45.0393 606.543 39.9856 617.111 35.4825 626.711C33.3539 631.248 33.3702 639.87 32.777 647.672C32.6283 649.627 30.9973 647.168 30.9793 647.429C30.3349 656.773 38.152 665.648 44.1293 674.951C49.7511 683.701 59.6881 688.443 69.5843 693.243C80.2653 698.423 90.2486 699.84 99.8481 702.24C114.446 705.89 135.19 701.674 144.79 696.874C154.909 691.815 161.58 681.324 167.575 670.232C172.498 661.125 171.791 642.458 167.62 629.174C166.081 624.271 158.632 624.356 151.774 623.457C140.852 622.026 132.26 624.931 128.377 628.518C119.676 636.31 114.877 643.501 113.079 648.283C112.468 650.692 112.468 653.065 117.861 655.51" stroke="white" stroke-width="20" stroke-linecap="round"/>
<path d="M32.5958 721C32.5958 726.357 36.1552 737.143 41.8628 745.835C48.377 755.755 60.7114 765.295 68.8189 772.512C76.0343 778.936 87.0653 780.323 106.471 783.307C161.416 791.756 170.369 790.498 179.672 796.475C189.141 802.559 193.164 815.63 196.175 825.229C199.975 837.342 194.422 855.754 187.528 867.465C177.834 883.934 162.675 886.35 152.779 890.269C138.806 895.802 121.329 894.763 80.6925 894.484C65.1015 894.378 56.6127 885.199 48.5052 879.519C39.3135 873.078 32.0206 863.663 29.0094 854.064C27.5342 849.361 27.2028 842.091 28.0926 834.011C28.7241 828.276 34.3755 825.283 38.2584 822.29C45.996 816.325 66.6078 818.074 81.097 821.948C92.5146 825.001 100.26 834.829 109.86 839.628C112.269 840.833 114.642 842.019 117.94 842.631C121.239 843.242 125.392 843.242 129.67 843.242" stroke="#7AD0F5" stroke-width="36" stroke-linecap="round"/>
<path d="M252.256 833.208C256.426 834.395 264.804 840.363 272.3 849.055C279.804 857.756 289.36 862.546 298.959 865.854C309.091 869.345 319.92 870.348 331.596 872.451C342.437 874.404 351.703 871.571 356.485 869.18C361.267 866.789 364.898 863.193 367.289 858.412C369.68 853.63 370.902 843.473 370.012 830.602C369.093 817.303 356.557 811.672 346.076 802.081C336.171 798.459 326.608 797.255 318.527 798.441C315.192 799.628 313.413 802.001 307.984 809.838" stroke="#A3EDE7" stroke-width="36" stroke-linecap="round"/>
<path d="M290.438 748.988C290.438 741.241 292.81 728.064 296.415 717.871C301.067 704.714 309.565 695.706 318.562 685.216C331.68 669.923 343.721 662.736 356.888 654.943C376.092 643.578 386.865 641.164 396.464 637.245C406.041 633.336 413.83 624.985 421.937 617.785C431.631 609.177 441.406 597.445 446.224 579.225C459.039 530.763 441.478 515.974 433.982 504.838C427.565 495.305 416.922 492.533 405.839 490.429C389.553 487.338 382.155 499.076 374.955 506.572C368.942 515.866 367.144 523.057 366.245 531.102C365.94 536.773 365.94 545.672 367.737 556.638" stroke="#7AD0F5" stroke-width="36" stroke-linecap="round"/>
<path d="M43.2573 240.247C43.2573 239.061 43.2573 232.517 44.1472 222.342C45.2941 209.228 62.3846 205.516 70.4921 199.521C79.1401 193.126 92.945 195.916 102.545 192.025C111.951 188.211 121.708 185.13 134.57 183.027C160.38 178.807 170.245 189.301 179.844 193.49C189.466 197.688 197.21 204.869 205.318 211.161C214.184 218.042 222.989 227.016 228.696 236.319C234.062 245.065 239.779 253.981 245.478 263.581C250.494 272.031 251.176 282.744 254.771 292.937C255.791 295.826 255.383 299.498 256.569 301.925C261.101 311.194 274.51 312.729 284.11 316.037C294.131 319.49 302.086 326.499 309.286 333.699C316.788 341.201 323.658 349.869 329.366 358.561C334.901 366.991 336.853 378.021 340.161 387.62C343.537 397.417 346.453 406.783 349.149 416.383C350.56 421.405 353.05 425.983 355.136 429.875C356.141 431.752 359.001 431.987 361.409 431.699C371.486 430.496 380.573 426.019 411.061 426.001C424.939 430.189 434.503 436.157 443.806 441.865C445.918 443.366 447.698 445.146 444.138 443.384" stroke="white" stroke-width="45" stroke-linecap="round"/>
<path d="M312.908 258.224C311.722 258.224 308.738 257.631 304.253 255.842C294.994 252.15 292.559 239.097 289.844 227.717C287.495 217.868 291.318 209.111 294.905 204.626C301.4 196.503 310.463 192.321 325.411 188.726C341.616 184.828 354.83 189.301 359.612 192.285C370.768 199.248 376.402 210.837 382.397 224.913C389.603 241.83 382.442 268.363 379.431 277.962C376.47 287.404 374.64 297.125 374.919 312.693C375.134 324.696 388.375 331.281 397.066 339.092C408.254 349.146 432.705 340.953 442.305 337.33C458.038 331.394 483.04 337.897 491.148 344.189C499.364 350.565 507.021 357.06 512.432 367.54C519.086 380.428 521.438 413.219 517.564 431.358C511.264 443.959 507.668 451.15 504.091 455.635C501.7 457.748 498.14 459.527 490.878 461.361" stroke="#A3EDE7" stroke-width="18" stroke-linecap="round"/>
<path d="M216.945 615.33C215.634 610.948 212.099 601.243 210.113 594.173C208.002 586.658 202.407 580.934 195.788 576.948C192.414 574.918 186.97 574.287 182.766 573.195C173.954 570.905 196.158 558.002 203.235 549.827C213.149 538.373 222.638 530.199 229.939 522.898C235.69 517.147 240.75 510.763 246.27 503.925C252.63 496.048 256.637 488.706 260.622 481.418C264.895 473.603 266.805 466.199 269.89 458.03C272.779 450.38 273.425 442.367 274.974 434.642C275.454 432.25 275.199 429.154 275.199 430.2C275.199 444.082 276.96 450.695 277.622 474.103C278.222 495.319 277.847 535.522 277.629 557.102C277.334 586.183 274.775 600.263 272.558 609.339C269.936 620.069 266.832 631.588 263.515 642.657C260.969 651.153 253.618 665.111 245.661 677.947C235.45 694.419 232.409 702.235 228.655 709.087C224.856 716.021 218.745 723.419 214.091 731.588C209.513 739.625 204.605 747.25 201.289 754.32C200.484 756.036 200.183 757.842 199.74 757.868C193.891 758.217 197.535 744.231 196.648 725.074C196.211 720.824 195.338 719.076 194.232 717.52C193.127 715.965 191.816 714.654 187.817 713.304" stroke="#A3EDE7" stroke-width="18" stroke-linecap="round"/>
<path d="M35.7763 958.489C33.6283 965.519 28.1933 974.176 27.3715 996.371C27.1074 1003.51 26.0128 1012.66 26.8183 1024.04C27.5868 1034.9 40.0722 1038.74 48.7617 1041.47C53.0189 1042.81 57.9882 1043.11 62.8618 1042.3C71.7647 1040.83 73.7237 1027.42 76.4493 1018.73C79.13 1010.18 80.7859 1001.38 84.0404 992.694C87.3265 983.92 88.9221 973.72 97.8394 963.143C103.506 956.422 109.523 952.533 113.852 950.638C118.007 948.818 123.615 948.726 129.034 950.068C139.397 952.636 135.038 1004.74 138.814 1032.5C139.463 1037.27 146.95 1037.67 152.084 1039.3C158.829 1039.85 164.849 1038.78 168.909 1036.34C170.821 1034.99 172.432 1033.37 175.719 1030.09" stroke="#A3EDE7" stroke-width="20" stroke-linecap="round"/>
<path d="M265.218 925.944C263.07 923.243 254.414 918.914 246.269 914.293C234.087 907.38 219.721 922.136 210.73 929.166C203.488 934.829 206.638 955.104 211.226 969.839C214.733 981.097 226.653 988.821 235.895 994.541C244.492 999.861 260.76 1000.8 273.591 998.096C284.07 995.89 293.923 992.141 305.851 986.177C318.758 979.723 331.35 980.197 340.039 979.375C344.423 978.96 348.729 978.016 353.057 978.822C363.141 980.698 366.628 993.703 371.242 1002.39C376.258 1011.84 382.901 1019.74 389.133 1027.89C394.945 1035.49 404.576 1038.74 418.399 1039.05C426.837 1032.82 435.494 1026.31 442.564 1017.65C444.199 1015.46 445.81 1013.85 447.47 1012.19" stroke="white" stroke-width="36" stroke-linecap="round"/>
<path d="M419.807 883.636C419.807 895.482 421.955 917.222 424.68 926.18C427.806 936.452 434.973 944.885 440.936 951.956C446.899 959.025 456.648 964.412 465.337 969.864C473.374 974.905 482.683 975.836 518.654 975.583C534.903 975.469 542.892 967.732 555.633 962.036C565.215 957.753 574.851 946.057 588.975 936.83C611.618 922.039 632.293 924.317 649.468 927.018C663.25 929.186 673.071 934.048 683.111 939.214C692.56 944.077 700.735 949.246 709.155 953.86C717.301 958.322 725.143 963.892 738.397 967.699C755.726 972.678 771.259 965.568 777.752 960.157C789.278 950.552 791.893 940.101 793.797 930.59C794.806 925.549 794.61 920.542 795.424 899.566C795.701 880.739 795.701 845.298 795.969 825.966C796.238 806.634 796.775 804.486 798.955 799.019" stroke="#7AD0F5" stroke-width="32" stroke-linecap="round"/>
<path d="M559.75 1046.36L564.632 1051.24" stroke="#A3EDE7" stroke-width="32" stroke-linecap="round"/>
<path d="M639.485 987.78C638.411 988.854 637.858 995.314 638.663 1005.61C639.661 1018.35 651.917 1023.55 660.875 1031.41C670.387 1038.74 676.879 1046.33 684.479 1054.46C686.122 1056.64 687.196 1058.79 693.184 1062.63" stroke="#A3EDE7" stroke-width="32" stroke-linecap="round"/>
<path d="M831.5 1038.22C819.052 1039.85 811.453 1038.78 807.393 1035.81C802.728 1032.4 802.21 1020.41 803.015 1007.13C803.835 993.611 819.524 987.812 829.564 983.183C838.146 979.225 847.187 976.942 876.673 976.657C893.565 976.494 904.141 983.972 912.83 985.062C929.661 987.174 955.659 984.558 964.902 977.772C974.049 971.056 975.772 959.628 977.676 945.552C982.12 912.695 974.698 903.748 971.728 894.791C968.474 884.974 967.115 876.085 965.211 867.396C964.398 858.706 963.307 839.31 967.896 825.087C969.263 822.907 970.337 820.759 971.444 818.546" stroke="white" stroke-width="32" stroke-linecap="round"/>
<path d="M1088.61 1005.68C1087.53 1005.68 1084.83 1004.07 1081.31 1000.55C1078.14 997.389 1078.84 991.067 1079.92 985.648C1081.73 976.487 1096.16 976.942 1114.3 977.194C1121.01 977.288 1124.93 983.419 1128.45 987.747C1136.46 997.589 1128.77 1022.93 1123.88 1036.56C1119.59 1048.54 1107.09 1050.69 1095.45 1053.94C1072.68 1060.31 1063.15 1050.17 1054.47 1044.76C1045.61 1039.24 1038.75 1030.67 1031.13 1017.66C1025.53 1008.09 1026.77 976.649 1030.28 957.163C1031.91 948.084 1044.08 943.876 1052.77 937.628C1060.57 932.022 1070.12 930.305 1078.81 927.58C1083.14 926.497 1087.5 925.407 1095.32 924.594C1100.99 924.317 1110.12 924.317 1119.52 924.317" stroke="#A3EDE7" stroke-width="40" stroke-linecap="round"/>
<path d="M1368.9 732.302C1378.58 732.302 1398.16 735.524 1406.83 740.69C1418 747.344 1430.12 757.719 1440.2 768.069C1448.19 776.276 1452.41 787.042 1456.49 795.732C1460.32 803.905 1461.1 813.078 1461.11 839.594C1461.12 853.756 1452.99 861.896 1444.35 870.585C1428.23 886.774 1408.57 880.902 1398.22 882.277C1388.76 883.534 1379.25 890.112 1369.74 898.248C1361.85 905.011 1360.76 947.814 1352.94 973.647C1350.17 982.784 1335.31 978.016 1317.76 979.367C1263.29 983.559 1252.32 988.821 1243.9 993.459C1237.64 1001.86 1234.39 1011.6 1231.14 1022.98C1230.58 1026.78 1230.58 1031.62 1230.58 1036.6" stroke="white" stroke-width="40" stroke-linecap="round"/>
<path d="M1469.79 999.17C1469.79 982.507 1468.71 947.684 1463.3 940.614C1460.51 936.968 1456.25 935.171 1451.38 934.357C1448.69 933.906 1445.44 934.08 1442.98 935.154C1438.22 937.23 1435.09 942.737 1431.57 947.066C1423.23 957.317 1430.18 977.43 1435.59 986.12C1437.23 988.3 1438.84 990.448 1440.2 992.897C1441.57 995.346 1442.65 998.031 1445.38 1004.05" stroke="#7AD0F5" stroke-width="20" stroke-linecap="round"/>
<path d="M1438.87 1020.32C1434.56 1019.25 1424.81 1013.85 1407.5 1008.14C1376.53 997.913 1366.23 1011.08 1355.65 1015.69C1349.34 1018.45 1344.51 1022.47 1341.53 1026.8C1338.71 1030.89 1337.44 1035.49 1336.9 1039.82C1336.35 1044.15 1339.59 1047.97 1343.37 1050.95C1360.98 1064.81 1399.23 1053.42 1408.73 1051.52C1421.49 1050.71 1436.59 1049.61 1453.94 1050.15C1460.54 1050.69 1462.69 1051.76 1466.53 1054.5" stroke="#7AD0F5" stroke-width="20" stroke-linecap="round"/>
<path d="M1455.14 421.498C1455.14 417.722 1451.92 410.139 1446.75 402.272C1440.86 393.292 1429.69 387.879 1418.3 383.005C1408.49 378.808 1385.33 379.189 1369.48 385.397C1359.29 389.385 1362.94 407.894 1363.19 430.358C1363.35 444.377 1376.45 451.83 1383.79 458.9C1391 465.852 1404.08 468.655 1421.18 475.986C1430.99 480.192 1439.91 484.928 1448.06 493.332C1455.85 501.356 1455.14 517.408 1451.9 528.863C1449.32 538.007 1440.53 543.509 1433.74 551.376C1426.41 559.885 1416.12 564.663 1407.98 567.942C1399.07 571.536 1389.01 574.98 1380.05 577.705C1369.95 580.779 1361.35 587.444 1351.58 596.663C1346.12 604.807 1345.58 612.406 1344.77 617.003C1344.49 619.452 1344.49 622.137 1344.49 624.904" stroke="#7AD0F5" stroke-width="20" stroke-linecap="round"/>
<path d="M1311.94 704.639C1311.94 703.565 1311.94 698.178 1313.02 690.05C1313.47 686.614 1316.24 685.144 1318.42 683.777C1335.6 673.006 1369.94 681.304 1378.63 684.558C1386.83 687.63 1406.72 686.739 1424.72 680.531C1432.34 673.737 1438.84 666.17 1442.65 657.749C1443.74 655.837 1445.35 654.226 1447.01 652.567" stroke="#A3EDE7" stroke-width="20" stroke-linecap="round"/>
<path d="M1072.74 112.321C1068.41 110.173 1064.08 101.516 1060.01 92.8263C1056.17 84.6529 1055.39 75.4799 1055.65 45.1805C1058.06 36.4259 1060.8 32.0649 1063.5 27.7364C1065.12 25.5559 1067.27 23.408 1071.11 21.1949" stroke="#A3EDE7" stroke-width="36" stroke-linecap="round"/>
<path d="M1427.48 63.5033C1427.48 61.3553 1425.87 58.6378 1422.35 56.4655C1415.41 52.1746 1406.91 64.024 1399.03 71.607C1391.02 79.3116 1398.71 95.4625 1403.32 103.883C1407.79 112.029 1415.5 117.723 1424.19 121.799C1428.3 123.726 1437.18 123.711 1448.01 122.637C1461.12 121.339 1462.73 104.77 1465.98 91.7767C1471.8 68.5567 1468.16 52.7635 1466.27 39.9489C1464.32 26.6937 1455.73 18.5262 1446.77 11.7243C1437.33 4.55913 1420.51 5.47569 1375.03 5.99641C1366.13 6.09831 1365.12 9.21835 1364.03 11.3989C1359.15 21.1624 1354.81 31.9998 1352.37 40.6893C1348.83 49.9158 1347.74 76.8467 1353.14 93.8515C1355.31 95.495 1358 96.569 1360.76 97.6755" stroke="white" stroke-width="36" stroke-linecap="round"/>
<path d="M1303.81 338.508C1303.27 338.508 1302.73 338.508 1301.65 337.703C1300.57 336.897 1298.96 335.286 1298.13 330.697C1297.3 326.108 1297.3 318.591 1301.86 314.718C1312.71 305.511 1327.11 311.919 1331.17 314.352C1340.15 319.732 1350.41 326.011 1359.1 330.087C1367.42 333.989 1378.6 335.254 1388.9 334.18C1399.24 333.102 1400.34 317.94 1401.71 309.25C1407.27 274.122 1405.22 213.763 1411.96 212.136C1432.88 212.657 1440.46 214.837 1446.42 215.911C1449.15 216.985 1451.3 219.133 1456.77 222.974" stroke="#E4FDFD" stroke-width="36" stroke-linecap="round"/>
<path d="M1274.52 13.0587C1274.52 32.9599 1275.59 71.0538 1279.11 83.7951C1282.09 94.5552 1289.13 105.226 1301.32 117.43C1309.17 125.291 1320.57 127.487 1329.54 132.1C1337.75 136.317 1342.83 144.833 1349.35 154.32C1355.55 163.347 1358.03 173.57 1360.49 186.556C1360.76 203.772 1360.23 216.985 1358.87 221.314C1358.06 223.494 1356.99 225.642 1355.88 231.11" stroke="#A3EDE7" stroke-width="36" stroke-linecap="round"/>
</g>
</svg>
