<svg width="952" height="832" viewBox="0 0 952 832" fill="none" xmlns="http://www.w3.org/2000/svg">
<g opacity="0.3">
<path d="M843.201 -22.3565C839.803 -19.9334 833.442 -10.3566 830.669 6.84182C828.689 19.1276 831.317 30.1877 834.822 46.059C838.159 61.1673 844.738 71.3659 848.892 74.4689C857.577 80.9551 868.442 81.2903 879.179 83.8945C889.149 86.3127 898.7 88.8802 908.877 90.7652C920.751 92.9644 930.39 103.895 938.493 111.121C947.182 118.868 952.78 127.146 960.371 150.103C965.655 166.084 953.88 178.187 943.973 188.173C934.216 198.009 924.478 202.181 912.822 208.161C901.165 214.142 888.458 216.262 877.452 213.754C863.129 208.791 850.076 196.284 844.973 187.99C843.821 185.635 842.863 182.946 841.876 180.175" stroke="#7AD0F5" stroke-width="40" stroke-linecap="round"/>
<path d="M1030.02 482.874C1026.58 491.509 1017.39 500.697 1007.56 505.646C997.985 510.468 985.102 514.574 973.249 518.624C962.549 522.279 931.045 520.942 912.106 517.213C891.184 513.094 874.323 483.497 870.266 472.82C865.854 461.213 859.304 449.478 859.001 396.563C858.893 377.661 867.921 366.42 874.263 356.306C880.711 346.022 890.97 339.876 905.064 334.65C936.776 322.892 950.356 342.679 960.773 349.894C971.025 356.996 978.077 366.316 985.587 386.449C988.24 393.563 986.763 403.657 984.765 409.229C982.766 414.801 978.769 415.943 973.569 416.531C962.088 417.12 953.332 415.407 948.73 411.669C946.411 409.644 944.127 407.36 940.043 405.007" stroke="#A3EDE7" stroke-width="50" stroke-linecap="round"/>
<path d="M676.143 220.582C684.1 220.348 694.648 215.192 702.167 208.081C709.494 201.152 717.514 191.052 725.102 181.848C731.952 173.54 742.787 145.121 747.045 127.079C751.748 107.148 735.27 82.4912 728.564 75.3949C721.272 67.6795 714.688 58.0231 673.988 40.446C659.45 34.1674 647.378 38.5093 637.188 40.834C626.827 43.1977 618.223 50.2992 608.883 61.1083C587.869 85.4293 598.016 103.964 599.658 115.577C601.274 127.005 605.806 136.318 618.506 149.573C622.994 154.257 631.336 156.247 636.387 156.295C641.437 156.342 643.824 153.165 646.236 148.739C651.014 138.734 652.991 130.397 651.842 125.086C651.154 122.364 650.252 119.588 649.975 115.191" stroke="#E4FDFD" stroke-width="50" stroke-linecap="round"/>
<path d="M895.143 679.68C898.219 681.677 902.9 692.253 903.132 704.03C903.366 715.953 892.564 725.423 884.948 731.858C881.263 734.971 875.713 737.02 869.517 738.447C858.434 741 847.288 733.615 835.999 729.718C825.465 726.082 816.729 718.128 806.975 716.141C797.401 714.19 782.308 718.434 772.251 725.95C763.568 732.438 764.926 745.317 763.681 755.447C762.179 767.661 758.365 782.677 753.375 791.602C748.402 800.522 736.019 810.638 721.027 819.487C715.092 822.968 712.557 824.399 708.299 826.411" stroke="#E4FDFD" stroke-width="30" stroke-linecap="round"/>
<path d="M889.003 572.4C893.264 574.892 900.182 581.882 904.883 593.049C906.058 595.842 904.656 598.837 903.638 601.52C896.543 620.217 862.793 623.949 857.999 621.686C845.832 615.941 836.999 605.82 830.32 598.684C822.12 589.925 811.982 580.993 804.363 566.099C791.529 541.009 772.456 503.893 763.741 499.242C749.575 491.681 783.868 561.873 779.51 573.319C775.685 583.362 770.136 593.302 757.481 605.928C747.752 615.635 724.675 626.941 708.476 628.528C694.842 627.034 683.154 623.447 675.222 614.996C673.308 611.435 670.976 606.223 668.574 600.852" stroke="#7AD0F5" stroke-width="40" stroke-linecap="round"/>
<path d="M645.846 497.008C647.821 488.524 655.399 470.654 660.994 461.368C668.815 448.39 687.273 437.544 732.49 427.778C750.884 423.805 767.525 425.004 781.695 419.703C809.395 409.339 779.135 365.118 775.547 355.238C772.292 346.277 767.305 337.636 763.378 322.969M763.378 322.969C762.385 319.603 794.105 306.161 793.077 304.187C792.05 302.212 766.216 324.609 763.378 322.969Z" stroke="white" stroke-width="30" stroke-linecap="round"/>
<path d="M426.323 566.362C423.578 570.079 418.188 582.407 415.511 598.197C413.014 612.93 421.259 625.192 432.388 638.562C441.927 650.022 452.244 656.264 457.99 658.155C468.915 661.752 484.855 657.894 496.252 654.355C509.086 650.369 526.985 645.415 538.373 642.261C549.015 639.314 562.346 639.204 573.538 637.487C583.449 635.967 590.94 639.284 595.644 640.174C600.793 641.148 603.432 648.721 605.447 655.793C609.087 668.562 603.466 681.339 602.527 692.801C601.589 704.261 606.738 714.719 611.491 725.215C619.238 742.325 645.316 757.016 656.383 758.785C659.262 759.122 662.098 759.454 664.769 759.594C667.441 759.734 669.863 759.672 669.85 757.225" stroke="white" stroke-width="50" stroke-linecap="round"/>
<path d="M1021 763.782C1012.62 763.782 994.426 762.098 970.189 759.112C928.75 754.006 897.636 759.52 892.454 761.428C886.975 763.444 881.407 767.163 875.572 770.985C862.81 779.344 871.607 799.051 877.131 805.655C882.669 812.276 892.376 817.35 902.117 822.46C912.521 827.571 921.6 833.504 929.081 839.259C930.718 840.752 932.003 842.436 935.276 848" stroke="#7AD0F5" stroke-width="50" stroke-linecap="round"/>
<path d="M569.149 562.306C564.469 556.723 551.761 546.725 533.716 534.349C502.861 513.189 493.801 485.477 493.785 479.61C493.768 473.407 496.27 464.992 498.778 456.268C504.264 437.188 538.921 418.122 551.973 413.45C565.059 408.765 578.139 408.816 591.294 408.844C604.819 409.313 623.706 415.906 631.71 405.564C662.525 365.757 641.311 335.876 651.536 331.02" stroke="#A3EDE7" stroke-width="40" stroke-linecap="round"/>
<path d="M278.051 745.771C272.998 747.745 263.089 753.946 252.639 764.692C250.025 767.38 249.478 770.614 248.786 773.479C243.964 793.45 270.387 801.708 275.759 800.037C289.391 795.798 302.736 786.661 312.526 780.281C324.545 772.448 338.307 764.695 353.388 750.54C378.792 726.696 358.393 742.543 368.469 738.959C384.846 733.135 373.194 748.946 370.255 761.174C367.676 771.902 366.618 782.753 370.022 797.278C372.638 808.444 385.634 823.003 398.434 826.759C410.847 827.039 424.428 828.18 434.438 817.377C468.547 780.568 473.009 746.007 478.155 740.857" stroke="#A3EDE7" stroke-width="30" stroke-linecap="round"/>
<path d="M539.066 234.153C543.06 236.918 551.891 247.042 558.649 255.217C565.231 263.18 568.937 273.273 572.489 284.941C575.826 295.904 574.764 305.664 571.286 310.674C567.241 316.5 560.71 318.751 543.686 322.683C470.746 336.645 461.168 341.862 453.558 350.25C452.526 352.782 452.468 355.693 453.325 363.802" stroke="#7AD0F5" stroke-width="40" stroke-linecap="round"/>
</g>
</svg>
